<?xml version="1.0" encoding="UTF-8"?>
<svg xmlns="http://www.w3.org/2000/svg" xmlns:xlink="http://www.w3.org/1999/xlink" viewBox="0 0 32 32" width="32px" height="32px">
<g id="surface48355305">
<path style=" stroke:none;fill-rule:nonzero;fill:rgb(28.235295%,70.980394%,39.215687%);fill-opacity:1;" d="M 23.839844 17.574219 L 23.847656 17.574219 C 23.847656 17.574219 21.332031 21.261719 19.21875 24 C 17.394531 26.367188 16.859375 28.394531 16.707031 29.375 C 16.648438 29.734375 16.351562 30 16 30 C 15.648438 30 15.351562 29.734375 15.292969 29.375 C 15.140625 28.394531 14.605469 26.367188 12.78125 24 C 12.5 23.632812 12.214844 23.253906 11.925781 22.867188 L 18.828125 14.667969 L 24.378906 8.078125 C 24.992188 9.367188 25.332031 10.808594 25.332031 12.332031 C 25.332031 14.265625 24.78125 16.058594 23.839844 17.574219 Z M 23.839844 17.574219 "/>
<path style=" stroke:none;fill-rule:nonzero;fill:rgb(98.823529%,77.64706%,5.490196%);fill-opacity:1;" d="M 18.828125 14.667969 L 11.925781 22.867188 C 10.046875 20.347656 8.152344 17.574219 8.152344 17.574219 L 8.160156 17.574219 C 7.960938 17.253906 7.78125 16.925781 7.625 16.585938 L 13.171875 10 C 12.648438 10.632812 12.332031 11.445312 12.332031 12.332031 C 12.332031 14.359375 13.972656 16 16 16 C 17.140625 16 18.160156 15.480469 18.828125 14.667969 Z M 18.828125 14.667969 "/>
<path style=" stroke:none;fill-rule:nonzero;fill:rgb(17.254902%,52.156866%,92.156863%);fill-opacity:1;" d="M 18.933594 3.160156 L 13.21875 9.945312 L 8.847656 6.132812 C 10.554688 4.011719 13.125 2.667969 16 2.667969 C 17.027344 2.667969 18.011719 2.839844 18.933594 3.160156 Z M 18.933594 3.160156 "/>
<path style=" stroke:none;fill-rule:nonzero;fill:rgb(92.941177%,34.117648%,28.235295%);fill-opacity:1;" d="M 13.21875 9.945312 L 13.171875 10 L 7.625 16.585938 C 7.011719 15.300781 6.667969 13.859375 6.667969 12.332031 C 6.667969 9.972656 7.488281 7.808594 8.847656 6.132812 Z M 13.21875 9.945312 "/>
<path style=" stroke:none;fill-rule:nonzero;fill:rgb(33.725491%,58.431375%,96.470588%);fill-opacity:1;" d="M 18.828125 14.667969 C 19.351562 14.035156 19.667969 13.21875 19.667969 12.332031 C 19.667969 10.308594 18.027344 8.667969 16 8.667969 C 14.859375 8.667969 13.839844 9.1875 13.171875 10 L 18.933594 3.160156 C 21.328125 3.972656 23.285156 5.765625 24.378906 8.078125 Z M 18.828125 14.667969 "/>
</g>
</svg>
